<svg xmlns="http://www.w3.org/2000/svg" viewBox="0 0 259.48 258.9"><g id="Layer_2" data-name="Layer 2"><g id="Layer_1-2" data-name="Layer 1"><path d="M108.34,19.56c.08.9.17,3.4.24,4.53L95.72,27.9l-.34-.33c2-5.76,4-11.7,6-17.76l-4.87,1.45c-2.21.65-2.53.91-2.82,1.83a8.73,8.73,0,0,0-.33,2.35l-.75.2c-.26-1.33-.6-3.57-.87-4.67l.64-.19c.45.51.74.4,1.48.18l10-3,.31.34c-2,5.84-3.93,11.63-5.86,17.64.78-.18,2.4-.63,4.08-1.13,3.24-1,3.94-1.3,4.41-2.28a9.26,9.26,0,0,0,.76-3Z" transform="translate(-4.68 -5.55)"/><path d="M119,22.6a1.91,1.91,0,0,1-1.28-.29,2.38,2.38,0,0,1-.8-1c-.9.86-2,2-2.78,2.15a3.16,3.16,0,0,1-3.63-2.61,2.63,2.63,0,0,1,1.65-2.89,19.69,19.69,0,0,0,3.74-2.34l-.08-.5c-.31-1.81-1.4-2.7-2.72-2.48a1.49,1.49,0,0,0-1.1.79,5.77,5.77,0,0,0-.41,1.77.7.7,0,0,1-.64.71,1.23,1.23,0,0,1-1.3-.93c-.06-.35.21-.72.66-1.16a10.93,10.93,0,0,1,3.36-2.4,3.39,3.39,0,0,1,4,3.06l.84,4.91c.19,1.17.69,1.45,1.14,1.37a2,2,0,0,0,.87-.43L121,21Zm-3-6.13c-.51.38-1.64,1.12-2.18,1.47-.89.6-1.4,1.18-1.24,2.12a1.87,1.87,0,0,0,2.16,1.65,3.41,3.41,0,0,0,1.94-1.27C116.54,19.25,116.28,17.67,116.07,16.47Z" transform="translate(-4.68 -5.55)"/><path d="M134,20.49a31.68,31.68,0,0,0-3.88,1.14c0-.41-.08-1.33-.12-2-1.32,1.25-2.4,2.14-3.82,2.23-1.72.11-3.28-.86-3.46-3.66l-.31-5c-.08-1.4-.3-1.54-1-1.63l-.73-.08,0-.67a35,35,0,0,0,3.65-.69c0,.83,0,2.06.16,3.76l.21,3.5c.15,2.27,1.37,2.84,2.53,2.77a4.06,4.06,0,0,0,2.7-1.41l-.37-6c-.09-1.39-.41-1.55-1.29-1.63l-.83-.05,0-.67a37.09,37.09,0,0,0,4-.71l.54,8.62c.08,1.29.29,1.46,1.27,1.45l.73,0Z" transform="translate(-4.68 -5.55)"/><path d="M140.83,21.41l-5.93-.21,0-.73c1.63-.09,1.79-.22,1.85-1.89l.19-5.36c.06-1.7,0-1.78-1.53-2l0-.64a14.14,14.14,0,0,0,3.67-.93l-.1,2.84c1-1.31,2.08-2.69,3.37-2.64a1.33,1.33,0,0,1,1.45,1.29,1.73,1.73,0,0,1-.93,1.38.5.5,0,0,1-.67-.07,1.64,1.64,0,0,0-1.13-.69c-.54,0-1.53.75-2.14,2l-.18,4.85c-.06,1.7.07,1.83,2,2.06Z" transform="translate(-4.68 -5.55)"/><path d="M171,10.06c-2.13-.25-2.36-.17-2.82,1.95L166,22.12c-.46,2.12-.25,2.24,1.77,2.92l-.15.7-6.76-1.46.15-.71c2.15.2,2.36.2,2.82-1.92l1.1-5-8.63-1.87-1.09,5c-.45,2.09-.27,2.21,1.75,2.91l-.16.71-6.73-1.46.15-.71c2.1.22,2.34.19,2.8-1.92L155.22,9.2c.46-2.12.26-2.3-1.74-2.94l.15-.71L160.36,7l-.15.71c-2.05-.26-2.35-.14-2.8,2l-.87,4,8.62,1.87.87-4c.46-2.09.22-2.33-1.76-2.94l.15-.71,6.76,1.47Z" transform="translate(-4.68 -5.55)"/><path d="M176,29.31a1.88,1.88,0,0,1-1-.87,2.4,2.4,0,0,1-.2-1.3c-1.2.3-2.71.78-3.47.51a3.18,3.18,0,0,1-1.89-4,2.64,2.64,0,0,1,2.86-1.72,20.08,20.08,0,0,0,4.4-.2l.18-.49c.62-1.72.1-3-1.16-3.48a1.53,1.53,0,0,0-1.35.15,5.7,5.7,0,0,0-1.22,1.34.71.71,0,0,1-.9.31,1.26,1.26,0,0,1-.69-1.45c.13-.34.55-.52,1.15-.69a10.92,10.92,0,0,1,4.11-.44,3.38,3.38,0,0,1,2,4.64l-1.68,4.69c-.4,1.12-.11,1.6.33,1.76a2.11,2.11,0,0,0,1,.05v.76Zm.43-6.78c-.63.08-2,.17-2.62.21-1.07.08-1.8.34-2.12,1.24a1.88,1.88,0,0,0,1.08,2.5,3.46,3.46,0,0,0,2.3-.16Z" transform="translate(-4.68 -5.55)"/><path d="M188.2,25.35c.21-1.55,0-2.77-1.4-3.43a1.56,1.56,0,0,0-2.15.85c-.47,1,0,1.79,1,3,1.57,1.89,2.25,3.06,1.53,4.6-1,2.16-3.47,2.35-5.31,1.49a6.69,6.69,0,0,1-2.49-1.94c.2-.73.58-2.12.85-2.93l.73.19c-.27,1.7,0,3.29,1.62,4.05A1.73,1.73,0,0,0,185,30.4c.48-1.06.1-1.89-.86-3.07-1.27-1.55-2.26-2.92-1.48-4.6s2.85-2.35,5-1.34a13.8,13.8,0,0,1,2.11,1.35c-.19.59-.71,2.14-.85,2.76Z" transform="translate(-4.68 -5.55)"/><path d="M193.11,37.45l.37-.62c1.37.62,1.61.62,2.48-.85l2.15-3.64c1.09-1.84.93-3.19-.57-4.05a3.7,3.7,0,0,0-3-.24l-3.09,5.24c-.86,1.45-.76,1.68.5,2.6l-.37.63-4.84-2.86.37-.63c1.35.65,1.7.71,2.58-.77L196,21.55c.69-1.17.8-1.5-.61-2.51l.34-.58a16.09,16.09,0,0,0,3.75,1.2c-.51.87-1.09,1.84-1.62,2.75L195,27.23a5.81,5.81,0,0,1,4.18.28c1.82,1.08,2.41,3,.84,5.62L197.7,37c-.87,1.47-.76,1.68.47,2.55l-.37.63Z" transform="translate(-4.68 -5.55)"/><path d="M198.61,40.94l.42-.59c1.41.83,1.63.83,2.66-.6l3.09-4.31c.94-1.3.94-1.43-.17-2.54l.36-.51a16.35,16.35,0,0,0,3.58,1.3l-1.9,2.64-3.31,4.61c-1,1.43-1,1.64.32,2.74l-.42.59Zm10.47-10a1.39,1.39,0,0,1,1.64-2.25,1.35,1.35,0,0,1,.25,1.92A1.37,1.37,0,0,1,209.08,31Z" transform="translate(-4.68 -5.55)"/><path d="M214.57,54.05l.49-.53c1.23.91,1.43,1,2.65-.37L220.62,50c1.24-1.35,1.56-2.62.39-3.7a4.8,4.8,0,0,0-3-1,9.81,9.81,0,0,1-.69.87l-3.38,3.69c-1.1,1.2-1,1.45-.08,2.52l-.48.54-4.07-3.73.48-.53c1.29,1,1.53,1,2.68-.21l3-3.27c1.29-1.41,1.56-2.59.4-3.65a4.88,4.88,0,0,0-3-.93l-4.1,4.47c-1.15,1.25-1.09,1.45-.11,2.56l-.48.53-4.09-3.75.49-.53c1.36,1,1.54,1.07,2.69-.19l3.61-3.93c1.11-1.22,1.11-1.37.21-2.53l.44-.48a13.71,13.71,0,0,0,3.34,1.66L213.45,40a18.82,18.82,0,0,1,2.31.3,3.56,3.56,0,0,1,2,.89,3,3,0,0,1,.64,3.45c.92.07,1.71.2,2.48.32a3.8,3.8,0,0,1,1.95.88c1.49,1.36,1.42,3.26-.29,5.12l-3.36,3.67C218,55.88,218,56,219,57.14l-.49.54Z" transform="translate(-4.68 -5.55)"/><path d="M231.62,55.68a5.55,5.55,0,0,1-.91,8,5.78,5.78,0,0,1-8.33-.46,5.66,5.66,0,0,1,.83-8.07A5.9,5.9,0,0,1,231.62,55.68Zm-.87.31c-1-1.21-3.07-1.35-5.39.54-2.53,2.07-3.46,4.69-2.12,6.33,1,1.24,2.76,1.54,5.49-.69C231.07,60.26,232.19,57.75,230.75,56Z" transform="translate(-4.68 -5.55)"/><path d="M242.06,72.2c-.91-1.06-1.18-1.1-2.85-.82-2.19.42-5.87,1.07-9.51,1.85l-.41-.63c1.89-2.53,3.76-5.26,5.63-7.93.93-1.32.94-1.57.38-2.81l.58-.38,2.88,4.4-.58.39c-.93-1.09-1.11-1-1.81-.08-1.14,1.51-2.83,3.91-4,5.5,2.43-.47,4.67-.92,6.36-1.35,1.3-.32,1.49-.54.71-2.07l.58-.38,2.57,3.93Z" transform="translate(-4.68 -5.55)"/><path d="M249.26,106.06c-.89.09-3.39.23-4.53.32L240.67,93.6l.33-.34c5.8,1.91,11.78,3.78,17.87,5.66l-1.54-4.85c-.69-2.19-1-2.51-1.89-2.78a8.83,8.83,0,0,0-2.36-.28l-.21-.74c1.32-.29,3.55-.67,4.65-1l.2.64c-.5.46-.38.75-.15,1.48l3.16,9.94-.33.32c-5.88-1.9-11.71-3.7-17.75-5.51.19.77.68,2.38,1.21,4,1,3.22,1.38,3.92,2.36,4.37a9.26,9.26,0,0,0,3,.7Z" transform="translate(-4.68 -5.55)"/><path d="M246.44,116.8a1.9,1.9,0,0,1,.26-1.28,2.42,2.42,0,0,1,1-.82c-.87-.89-2.05-2-2.2-2.74a3.16,3.16,0,0,1,2.54-3.68,2.6,2.6,0,0,1,2.92,1.6,20.77,20.77,0,0,0,2.41,3.69l.51-.1c1.8-.34,2.66-1.45,2.41-2.77a1.5,1.5,0,0,0-.8-1.08,5.64,5.64,0,0,0-1.78-.37.71.71,0,0,1-.72-.62,1.22,1.22,0,0,1,.9-1.33c.35-.07.72.2,1.17.64a11,11,0,0,1,2.47,3.32,3.64,3.64,0,0,1-.28,2.26,3.58,3.58,0,0,1-2.7,1.85l-4.89.92c-1.16.22-1.44.72-1.35,1.18a2.16,2.16,0,0,0,.45.86l-.66.39Zm6.06-3.06c-.38-.51-1.14-1.62-1.51-2.16-.61-.88-1.2-1.37-2.14-1.19a1.88,1.88,0,0,0-1.61,2.19,3.48,3.48,0,0,0,1.31,1.91Z" transform="translate(-4.68 -5.55)"/><path d="M248.84,131.7a30,30,0,0,0-1.22-3.86l2-.16c-1.27-1.29-2.18-2.36-2.3-3.77-.14-1.72.79-3.3,3.59-3.53l5-.41c1.39-.11,1.53-.33,1.6-1l.07-.73.67-.06a36.14,36.14,0,0,0,.76,3.64c-.82,0-2.06.09-3.76.23l-3.49.29c-2.26.18-2.81,1.42-2.72,2.57a4.07,4.07,0,0,0,1.47,2.68l6-.49c1.38-.11,1.54-.44,1.6-1.32l0-.83.67-.06a36.43,36.43,0,0,0,.79,4l-8.61.71c-1.29.1-1.45.32-1.42,1.3l0,.73Z" transform="translate(-4.68 -5.55)"/><path d="M248.06,138.57l.09-5.94.73,0c.12,1.62.25,1.78,1.93,1.81l5.36.09c1.7,0,1.78-.08,2-1.57h.64a14.65,14.65,0,0,0,1,3.66L257,136.6c1.33.92,2.73,2,2.71,3.32a1.33,1.33,0,0,1-1.27,1.47,1.72,1.72,0,0,1-1.4-.9.52.52,0,0,1,.06-.67,1.61,1.61,0,0,0,.67-1.15c0-.54-.78-1.5-2.08-2.09l-4.85-.08c-1.7,0-1.84.1-2,2.08Z" transform="translate(-4.68 -5.55)"/><path d="M260,168.54c.21-2.14.12-2.37-2-2.79l-10.15-2c-2.13-.41-2.25-.2-2.88,1.83l-.71-.14,1.33-6.78.7.14c-.15,2.15-.14,2.36,2,2.78l5.07,1,1.69-8.66-5.06-1c-2.1-.41-2.22-.23-2.88,1.8l-.71-.14,1.33-6.76.71.14c-.18,2.1-.15,2.34,2,2.76l10.15,2c2.13.42,2.3.22,2.9-1.79l.71.14-1.32,6.75-.71-.13c.22-2.06.09-2.35-2-2.76l-4-.79-1.7,8.66,4,.78c2.1.41,2.34.17,2.91-1.82l.71.14-1.33,6.78Z" transform="translate(-4.68 -5.55)"/><path d="M240.85,173.93a1.89,1.89,0,0,1,.85-1,2.41,2.41,0,0,1,1.3-.22c-.33-1.2-.83-2.7-.58-3.46a3.16,3.16,0,0,1,4-2,2.62,2.62,0,0,1,1.77,2.83,20.05,20.05,0,0,0,.29,4.39l.49.17c1.74.58,3,0,3.46-1.23a1.5,1.5,0,0,0-.17-1.34,5.52,5.52,0,0,0-1.37-1.19.72.72,0,0,1-.32-.9,1.24,1.24,0,0,1,1.43-.72c.35.12.53.54.71,1.14a11,11,0,0,1,.53,4.09,3.65,3.65,0,0,1-1.35,1.84,3.57,3.57,0,0,1-3.26.29l-4.72-1.59c-1.12-.38-1.6-.08-1.75.36a2.12,2.12,0,0,0,0,1l-.77,0Zm6.79.3c-.09-.63-.21-2-.27-2.62-.1-1.07-.37-1.79-1.28-2.09a1.87,1.87,0,0,0-2.47,1.12,3.41,3.41,0,0,0,.2,2.3Z" transform="translate(-4.68 -5.55)"/><path d="M245.06,186c1.55.18,2.77,0,3.4-1.47a1.56,1.56,0,0,0-.89-2.13c-1-.45-1.79,0-3,1.08-1.86,1.61-3,2.31-4.57,1.63-2.17-.95-2.41-3.42-1.59-5.29a6.63,6.63,0,0,1,1.89-2.52c.74.18,2.13.54,2.95.79l-.18.73c-1.7-.23-3.29.05-4,1.71a1.72,1.72,0,0,0,.88,2.35c1.07.47,1.89.07,3.05-.91,1.53-1.3,2.88-2.32,4.58-1.57s2.4,2.8,1.43,5a13.49,13.49,0,0,1-1.3,2.13c-.6-.17-2.16-.66-2.78-.79Z" transform="translate(-4.68 -5.55)"/><path d="M233.06,191.17l.63.36c-.6,1.38-.59,1.62.89,2.46l3.69,2.08c1.86,1.05,3.21.86,4-.65a3.68,3.68,0,0,0,.17-3l-5.3-3c-1.46-.82-1.69-.72-2.59.56l-.63-.36,2.77-4.9.62.36c-.62,1.36-.67,1.72.83,2.57L249,193.72c1.19.67,1.52.77,2.5-.66l.59.33a15.94,15.94,0,0,0-1.13,3.78l-2.78-1.57-4.88-2.75a5.75,5.75,0,0,1-.2,4.18c-1,1.84-2.9,2.47-5.6.95l-3.95-2.23c-1.48-.84-1.7-.72-2.55.52l-.62-.36Z" transform="translate(-4.68 -5.55)"/><path d="M229.67,196.74l.6.41c-.8,1.43-.79,1.65.65,2.64l4.38,3c1.31.91,1.44.9,2.53-.23l.51.35a17.25,17.25,0,0,0-1.23,3.6l-2.67-1.84-4.68-3.22c-1.44-1-1.65-.92-2.73.37l-.59-.4ZM239.85,207a1.42,1.42,0,0,1,1.9-.35,1.39,1.39,0,0,1,.38,2,1.34,1.34,0,0,1-1.91.28A1.37,1.37,0,0,1,239.85,207Z" transform="translate(-4.68 -5.55)"/><path d="M216.88,213l.54.48c-.89,1.24-.93,1.45.42,2.64l3.24,2.85c1.37,1.21,2.65,1.51,3.71.31a4.66,4.66,0,0,0,.88-3,10.39,10.39,0,0,1-.88-.67L221,212.23c-1.22-1.07-1.47-1-2.52,0l-.54-.48,3.64-4.14.55.47c-.94,1.31-1,1.55.26,2.68l3.33,2.93c1.43,1.26,2.62,1.51,3.66.33a5,5,0,0,0,.87-3l-4.55-4c-1.28-1.13-1.48-1.06-2.57-.06l-.54-.47,3.66-4.17.55.48c-1,1.38-1,1.56.24,2.69l4,3.53c1.24,1.09,1.38,1.08,2.53.17l.49.42a13.74,13.74,0,0,0-1.6,3.37l-1.57-1.38a16.2,16.2,0,0,1-.25,2.32,3.58,3.58,0,0,1-.84,2,3,3,0,0,1-3.45.71c0,.92-.16,1.71-.26,2.48a4,4,0,0,1-.84,2c-1.33,1.51-3.24,1.48-5.13-.19l-3.74-3.29c-1.3-1.14-1.46-1.08-2.55-.07l-.54-.48Z" transform="translate(-4.68 -5.55)"/><path d="M215.6,230a5.55,5.55,0,0,1-8-.76,5.79,5.79,0,0,1,.29-8.34,5.66,5.66,0,0,1,8.09.68A5.89,5.89,0,0,1,215.6,230Zm-.33-.87c1.2-1,1.29-3.1-.65-5.37-2.12-2.5-4.76-3.37-6.37-2-1.22,1-1.49,2.79.8,5.48C211,229.57,213.54,230.63,215.27,229.16Z" transform="translate(-4.68 -5.55)"/><path d="M199.28,240.8c1-.94,1.08-1.21.76-2.87-.46-2.18-1.18-5.84-2-9.48l.62-.42c2.57,1.84,5.34,3.66,8,5.47,1.34.9,1.6.92,2.82.33l.39.57-4.34,3-.4-.57c1.07-1,1-1.13.05-1.81-1.54-1.11-4-2.76-5.59-3.84.53,2.42,1,4.64,1.48,6.33.35,1.29.58,1.48,2.08.67l.4.57-3.88,2.65Z" transform="translate(-4.68 -5.55)"/><path d="M165.57,248.66c-.11-.89-.3-3.38-.41-4.51l12.69-4.32.35.32c-1.8,5.84-3.54,11.85-5.3,18l4.81-1.64c2.18-.74,2.49-1,2.75-1.94a9,9,0,0,0,.23-2.36l.74-.23c.31,1.31.74,3.54,1,4.63l-.63.21c-.47-.49-.75-.37-1.48-.12L170.5,260l-.33-.32c1.78-5.91,3.47-11.77,5.16-17.85-.78.21-2.37.73-4,1.29-3.2,1.09-3.89,1.46-4.32,2.45a9.2,9.2,0,0,0-.64,3Z" transform="translate(-4.68 -5.55)"/><path d="M154.76,246.06a1.92,1.92,0,0,1,1.29.23,2.37,2.37,0,0,1,.84,1c.87-.89,1.91-2.08,2.69-2.25a3.16,3.16,0,0,1,3.73,2.46,2.62,2.62,0,0,1-1.54,3,20.49,20.49,0,0,0-3.64,2.47l.11.51c.37,1.79,1.5,2.64,2.81,2.36a1.46,1.46,0,0,0,1.06-.83,5.23,5.23,0,0,0,.34-1.78.72.72,0,0,1,.61-.74,1.25,1.25,0,0,1,1.35.88c.07.35-.19.73-.63,1.18a10.57,10.57,0,0,1-3.26,2.53,3.37,3.37,0,0,1-4.16-2.89l-1-4.87c-.24-1.16-.74-1.43-1.2-1.33a2.05,2.05,0,0,0-.85.47l-.4-.66Zm3.19,6c.49-.39,1.59-1.18,2.12-1.55.87-.63,1.35-1.23,1.15-2.17a1.87,1.87,0,0,0-2.22-1.56,3.43,3.43,0,0,0-1.88,1.34Z" transform="translate(-4.68 -5.55)"/><path d="M139.93,248.76a30.38,30.38,0,0,0,3.83-1.3c0,.41.14,1.33.2,2,1.27-1.3,2.32-2.24,3.73-2.38,1.72-.17,3.31.73,3.6,3.52l.5,5c.14,1.39.36,1.52,1,1.59l.73.05.07.67a34.3,34.3,0,0,0-3.62.83c0-.83-.14-2.06-.31-3.75l-.35-3.49c-.23-2.26-1.48-2.78-2.63-2.67a4.11,4.11,0,0,0-2.65,1.52l.61,6c.14,1.38.47,1.53,1.35,1.57l.83,0,.07.67a36.51,36.51,0,0,0-4,.87l-.88-8.6c-.13-1.28-.35-1.44-1.33-1.39l-.72,0Z" transform="translate(-4.68 -5.55)"/><path d="M133.07,248.13,139,248v.73c-1.62.18-1.77.31-1.75,2l.09,5.37c0,1.7.13,1.78,1.63,1.93v.65a14,14,0,0,0-3.62,1.11c0-.85,0-2,0-2.83-.89,1.35-2,2.79-3.24,2.81a1.33,1.33,0,0,1-1.51-1.22,1.73,1.73,0,0,1,.85-1.43.5.5,0,0,1,.67,0,1.65,1.65,0,0,0,1.18.63c.54,0,1.48-.83,2-2.15l-.07-4.85c0-1.7-.16-1.83-2.15-2Z" transform="translate(-4.68 -5.55)"/><path d="M103.31,260.64c2.15.16,2.37.07,2.75-2.06l1.78-10.19c.38-2.13.16-2.25-1.88-2.84l.12-.72,6.81,1.2-.12.71c-2.15-.12-2.37-.1-2.74,2l-.89,5.08,8.69,1.53.89-5.08c.37-2.11.18-2.22-1.86-2.84l.12-.71,6.79,1.19-.13.71c-2.1-.13-2.34-.1-2.71,2l-1.79,10.18c-.37,2.14-.17,2.3,1.86,2.87l-.13.71-6.78-1.19.12-.71c2.07.18,2.35,0,2.72-2.07l.71-4L109,254.92l-.71,4c-.37,2.11-.12,2.34,1.88,2.87l-.12.71-6.81-1.19Z" transform="translate(-4.68 -5.55)"/><path d="M97.56,241.61a1.89,1.89,0,0,1,1,.83,2.47,2.47,0,0,1,.25,1.29c1.19-.35,2.68-.88,3.44-.64a3.16,3.16,0,0,1,2.06,4,2.62,2.62,0,0,1-2.79,1.83,20.74,20.74,0,0,0-4.39.38l-.16.49c-.55,1.75,0,3,1.3,3.44a1.49,1.49,0,0,0,1.34-.2,5.47,5.47,0,0,0,1.16-1.39.72.72,0,0,1,.89-.35,1.26,1.26,0,0,1,.75,1.43c-.11.34-.52.54-1.12.73a11,11,0,0,1-4.09.61A3.4,3.4,0,0,1,95,249.46l1.49-4.75c.36-1.14,0-1.61-.4-1.75a2.11,2.11,0,0,0-1,0l0-.76Zm-.15,6.79c.62-.1,2-.25,2.61-.31,1.06-.13,1.78-.42,2.06-1.33a1.88,1.88,0,0,0-1.17-2.45,3.43,3.43,0,0,0-2.3.25Z" transform="translate(-4.68 -5.55)"/><path d="M85.53,246c-.14,1.56.08,2.77,1.54,3.38a1.58,1.58,0,0,0,2.12-.94c.42-1-.07-1.79-1.15-3-1.64-1.83-2.37-3-1.72-4.54.91-2.19,3.38-2.48,5.26-1.7a6.72,6.72,0,0,1,2.56,1.85c-.17.74-.5,2.13-.73,3l-.74-.17c.2-1.7-.12-3.28-1.78-4a1.72,1.72,0,0,0-2.34.93c-.45,1.07,0,1.89,1,3,1.33,1.5,2.38,2.83,1.66,4.54s-2.75,2.46-5,1.53A13.89,13.89,0,0,1,84,248.72c.17-.61.63-2.18.74-2.8Z" transform="translate(-4.68 -5.55)"/><path d="M80.14,234.15l-.35.63c-1.39-.57-1.63-.56-2.44.94l-2,3.73c-1,1.88-.81,3.23.73,4a3.64,3.64,0,0,0,3,.12L82,238.23c.79-1.48.69-1.71-.6-2.58l.34-.64,5,2.67-.34.64c-1.38-.6-1.74-.64-2.56.88l-5.9,10.94c-.65,1.2-.74,1.54.71,2.49l-.32.59a16,16,0,0,0-3.8-1.05L76,249.36l2.66-4.93a5.82,5.82,0,0,1-4.19-.12c-1.86-1-2.53-2.86-1.06-5.58l2.15-4c.81-1.5.69-1.71-.57-2.53l.35-.64Z" transform="translate(-4.68 -5.55)"/><path d="M64.45,241.26a1.42,1.42,0,0,1,.39,1.89,1.4,1.4,0,0,1-2,.42,1.35,1.35,0,0,1-.31-1.91A1.37,1.37,0,0,1,64.45,241.26Zm10.06-10.39-.39.61c-1.44-.77-1.67-.76-2.63.7l-2.93,4.44c-.88,1.33-.87,1.46.28,2.53l-.34.52a16.56,16.56,0,0,0-3.63-1.16l1.79-2.71,3.13-4.74c1-1.46.88-1.67-.43-2.72l.4-.6Z" transform="translate(-4.68 -5.55)"/><path d="M58.05,218.41l-.46.55c-1.26-.87-1.47-.91-2.64.47l-2.78,3.29c-1.18,1.4-1.46,2.68-.24,3.72a4.72,4.72,0,0,0,3,.82,9.85,9.85,0,0,1,.66-.89l3.23-3.82c1.05-1.24,1-1.49,0-2.53l.46-.55L63.53,223l-.47.55c-1.32-.92-1.57-1-2.66.31l-2.87,3.39c-1.23,1.45-1.46,2.65-.26,3.66a4.86,4.86,0,0,0,3,.81l3.91-4.62c1.1-1.3,1-1.5,0-2.57l.47-.55,4.23,3.58-.47.56c-1.4-1-1.58-1-2.68.29l-3.45,4.08c-1.07,1.26-1,1.4-.12,2.53l-.42.49a14.14,14.14,0,0,0-3.4-1.53l1.35-1.59a17,17,0,0,1-2.32-.21,3.51,3.51,0,0,1-2-.8,3,3,0,0,1-.78-3.43c-.92,0-1.71-.14-2.49-.22a4,4,0,0,1-2-.8c-1.53-1.3-1.54-3.2.09-5.13l3.22-3.8c1.11-1.32,1-1.48,0-2.55l.47-.55Z" transform="translate(-4.68 -5.55)"/><path d="M41,217.45a5.55,5.55,0,0,1,.6-8,5.79,5.79,0,0,1,8.34.13,5.66,5.66,0,0,1-.51,8.1A5.9,5.9,0,0,1,41,217.45Zm.86-.35c1,1.18,3.12,1.24,5.37-.75,2.45-2.17,3.27-4.82,1.87-6.4-1.06-1.2-2.82-1.44-5.47.9C41.32,212.85,40.31,215.4,41.81,217.1Z" transform="translate(-4.68 -5.55)"/><path d="M29.88,201.36c1,1,1.23,1.06,2.88.71,2.18-.5,5.82-1.29,9.44-2.22l.43.61c-1.79,2.6-3.56,5.41-5.31,8.15-.88,1.35-.88,1.61-.27,2.82l-.57.4-3-4.28.57-.41c1,1.05,1.14,1,1.81,0,1.07-1.56,2.67-4,3.73-5.66-2.41.58-4.63,1.11-6.3,1.6-1.29.38-1.47.61-.63,2.1l-.57.4-2.72-3.82Z" transform="translate(-4.68 -5.55)"/><path d="M21.33,167.81c.89-.13,3.38-.37,4.51-.51l4.57,12.61-.31.36C24.22,178.58,18.18,177,12,175.33l1.74,4.77c.78,2.16,1.06,2.47,2,2.71a9.22,9.22,0,0,0,2.37.18l.24.74c-1.3.33-3.52.81-4.6,1.15l-.23-.63c.48-.48.35-.76.09-1.49L10.06,173l.32-.33c5.95,1.66,11.84,3.22,17.95,4.79-.23-.76-.77-2.35-1.37-4-1.15-3.17-1.54-3.86-2.53-4.26a9,9,0,0,0-3-.59Z" transform="translate(-4.68 -5.55)"/><path d="M23.72,157a1.87,1.87,0,0,1-.2,1.29,2.43,2.43,0,0,1-1,.86c.91.85,2.12,1.87,2.3,2.65a3.16,3.16,0,0,1-2.38,3.78,2.63,2.63,0,0,1-3-1.48,20,20,0,0,0-2.55-3.6l-.5.12c-1.79.41-2.61,1.55-2.31,2.86a1.48,1.48,0,0,0,.85,1.05,5.77,5.77,0,0,0,1.79.3.72.72,0,0,1,.75.59,1.24,1.24,0,0,1-.85,1.36c-.35.09-.73-.17-1.2-.59a10.87,10.87,0,0,1-2.59-3.22,3.5,3.5,0,0,1,.19-2.26,3.55,3.55,0,0,1,2.62-2l4.85-1.12c1.15-.26,1.41-.77,1.3-1.22a2.13,2.13,0,0,0-.48-.85l.64-.41Zm-5.93,3.3c.4.49,1.21,1.57,1.59,2.09.65.86,1.26,1.33,2.19,1.11a1.88,1.88,0,0,0,1.52-2.25,3.42,3.42,0,0,0-1.38-1.86Z" transform="translate(-4.68 -5.55)"/><path d="M20.74,142.17A30.26,30.26,0,0,0,22.11,146l-2,.24c1.32,1.25,2.28,2.27,2.45,3.68.2,1.72-.66,3.33-3.46,3.67l-5,.6c-1.39.17-1.51.39-1.56,1.05l0,.73-.66.08a36.24,36.24,0,0,0-.91-3.6c.83,0,2.06-.17,3.75-.38l3.48-.42c2.26-.28,2.75-1.53,2.61-2.69a4.07,4.07,0,0,0-1.56-2.61l-6,.72c-1.38.17-1.52.5-1.54,1.39v.83l-.66.08a37.94,37.94,0,0,0-.95-4l8.57-1c1.28-.15,1.44-.38,1.37-1.36l-.06-.72Z" transform="translate(-4.68 -5.55)"/><path d="M21.26,135.26l.13,5.93h-.73c-.19-1.62-.32-1.77-2-1.73l-5.37.11c-1.7,0-1.78.15-1.92,1.65h-.65a14.39,14.39,0,0,0-1.13-3.61l2.83-.06c-1.36-.88-2.8-1.93-2.83-3.22a1.33,1.33,0,0,1,1.21-1.52,1.71,1.71,0,0,1,1.43.84.53.53,0,0,1,0,.68,1.61,1.61,0,0,0-.62,1.17c0,.54.83,1.48,2.16,2l4.85-.11c1.7,0,1.82-.17,1.93-2.16Z" transform="translate(-4.68 -5.55)"/><path d="M8.14,105.81c-.12,2.14,0,2.37,2.12,2.7l10.21,1.58c2.14.34,2.26.12,2.81-1.94l.71.12-1.06,6.82-.71-.11c.07-2.15.05-2.36-2.09-2.69L15,111.5l-1.35,8.71,5.09.79c2.12.33,2.23.14,2.8-1.91l.72.11L21.24,126l-.71-.11c.09-2.1,0-2.34-2.09-2.67L8.22,121.63c-2.14-.33-2.3-.12-2.83,1.91l-.71-.11,1.05-6.8.72.11c-.14,2.07,0,2.35,2.11,2.68l4.06.62L14,111.33l-4.05-.63c-2.12-.33-2.34-.07-2.84,1.94l-.71-.11,1.06-6.83Z" transform="translate(-4.68 -5.55)"/><path d="M27.05,99.66a1.94,1.94,0,0,1-.81,1A2.46,2.46,0,0,1,25,101c.38,1.18.94,2.66.72,3.43a3.16,3.16,0,0,1-3.93,2.13,2.63,2.63,0,0,1-1.88-2.75,20.79,20.79,0,0,0-.46-4.38l-.5-.15c-1.76-.51-3,.08-3.41,1.37a1.54,1.54,0,0,0,.23,1.33,5.86,5.86,0,0,0,1.41,1.14.71.71,0,0,1,.36.88,1.22,1.22,0,0,1-1.4.77c-.35-.1-.55-.51-.76-1.1a11,11,0,0,1-.69-4.07,3.39,3.39,0,0,1,4.52-2.31l4.78,1.39c1.13.34,1.6,0,1.73-.43a2,2,0,0,0,0-1l.77,0Zm-6.79,0c.11.62.29,2,.37,2.6.14,1.07.45,1.77,1.36,2a1.87,1.87,0,0,0,2.43-1.22,3.41,3.41,0,0,0-.3-2.29Z" transform="translate(-4.68 -5.55)"/><path d="M22.37,87.74c-1.57-.11-2.77.14-3.34,1.61a1.56,1.56,0,0,0,1,2.1c1,.4,1.79-.11,2.94-1.21,1.79-1.68,2.92-2.43,4.5-1.81,2.21.86,2.55,3.32,1.81,5.22a6.91,6.91,0,0,1-1.79,2.6c-.75-.16-2.15-.46-3-.67l.15-.75c1.71.17,3.29-.18,3.94-1.86a1.72,1.72,0,0,0-1-2.32c-1.08-.42-1.89,0-3,1-1.48,1.36-2.78,2.43-4.51,1.75s-2.51-2.7-1.63-5a12.78,12.78,0,0,1,1.21-2.18c.61.15,2.19.58,2.81.68Z" transform="translate(-4.68 -5.55)"/><path d="M34.16,82.11l-.65-.33c.55-1.4.53-1.64-1-2.42l-3.76-1.93c-1.9-1-3.24-.74-4,.81a3.71,3.71,0,0,0-.06,3.05l5.42,2.78c1.49.76,1.72.65,2.57-.66l.64.33-2.57,5-.64-.32c.57-1.4.61-1.75-.93-2.54L18.12,80.2c-1.22-.62-1.55-.71-2.48.76l-.6-.31a15.81,15.81,0,0,0,1-3.82l2.84,1.46,5,2.56a5.82,5.82,0,0,1,0-4.19c1-1.88,2.81-2.59,5.56-1.17l4,2.07c1.51.78,1.72.65,2.52-.62l.64.33Z" transform="translate(-4.68 -5.55)"/><path d="M26.74,66.56a1.41,1.41,0,0,1-1.89.42,1.39,1.39,0,0,1-.45-1.93,1.35,1.35,0,0,1,1.9-.36A1.38,1.38,0,0,1,26.74,66.56Zm10.58,9.86L36.71,76c.74-1.45.73-1.68-.76-2.61l-4.49-2.84c-1.35-.85-1.48-.84-2.52.33l-.53-.33a17.08,17.08,0,0,0,1.09-3.65l2.74,1.73,4.8,3c1.48.93,1.69.85,2.72-.49l.61.39Z" transform="translate(-4.68 -5.55)"/><path d="M49.45,59.72l-.56-.46c.84-1.28.87-1.48-.53-2.62L45,53.92c-1.42-1.15-2.71-1.4-3.72-.16a4.71,4.71,0,0,0-.77,3.07,9,9,0,0,1,.91.64l3.89,3.15c1.26,1,1.51.93,2.52-.08l.56.46-3.48,4.28-.56-.45c.89-1.34,1-1.58-.37-2.66l-3.44-2.8c-1.48-1.2-2.68-1.41-3.67-.18a5,5,0,0,0-.75,3l4.71,3.83c1.32,1.07,1.51,1,2.56,0l.56.46-3.5,4.3-.56-.46c1-1.41,1-1.6-.35-2.67l-4.14-3.37c-1.28-1-1.43-1-2.54-.07l-.5-.4a14,14,0,0,0,1.46-3.44l1.62,1.32a17.84,17.84,0,0,1,.16-2.33,3.53,3.53,0,0,1,.77-2,3,3,0,0,1,3.41-.85c0-.92.1-1.72.17-2.49a3.87,3.87,0,0,1,.76-2c1.27-1.56,3.17-1.61,5.13,0l3.87,3.13c1.34,1.09,1.5,1,2.54,0l.56.46Z" transform="translate(-4.68 -5.55)"/><path d="M50.09,42.59a5.55,5.55,0,0,1,8,.45,5.77,5.77,0,0,1,0,8.34,5.65,5.65,0,0,1-8.1-.36A5.91,5.91,0,0,1,50.09,42.59Zm.37.86c-1.16,1.06-1.17,3.14.85,5.34,2.22,2.41,4.89,3.18,6.44,1.75,1.18-1.08,1.38-2.84-1-5.44C54.7,42.88,52.13,41.91,50.46,43.45Z" transform="translate(-4.68 -5.55)"/><path d="M66,31.2c-1,1-1,1.25-.65,2.89.55,2.16,1.41,5.79,2.41,9.39l-.6.45c-2.64-1.74-5.49-3.45-8.26-5.16-1.36-.84-1.62-.85-2.82-.21L55.63,38l4.23-3.14.41.56c-1,1-1,1.17,0,1.81,1.58,1.05,4.08,2.6,5.73,3.62-.62-2.4-1.19-4.6-1.72-6.27-.4-1.27-.63-1.46-2.11-.59l-.41-.56,3.77-2.79Z" transform="translate(-4.68 -5.55)"/></g></g></svg>