<?xml version="1.0" encoding="utf-8"?>
<!-- Generator: Adobe Illustrator 26.4.1, SVG Export Plug-In . SVG Version: 6.00 Build 0)  -->
<svg version="1.1" id="Layer_1" xmlns="http://www.w3.org/2000/svg" xmlns:xlink="http://www.w3.org/1999/xlink" x="0px" y="0px"
	 viewBox="0 0 89 59" style="enable-background:new 0 0 89 59;" xml:space="preserve">
<style type="text/css">
	.st0{fill:#262429;}
</style>
<path class="st0" d="M77.3,21.3c5,0.6,8.8,5.8,8,11.6c-0.7,4.8-4.7,10.2-12.1,11.8c-2.7,0.6-5.3,0.8-7.8,0.8
	c-9.5,0-17.2-3.6-20.5-8.5c-3.4,4.6-10.9,7.9-19.9,7.9c-2.8,0-5.8-0.3-8.9-1.1C8.6,42,4.9,36.5,4.5,31.6C4,25.9,8,20.8,13,20.3
	c-3.1,0.8-5.3,5.7-3.7,9.2c0.9,2,3,3.5,5.5,3.5c1.9,0,4.2-0.9,6.4-3c4.7-4.4,9-7.3,15.4-7.3c0.1,0,0.2,0,0.3,0c3.2,0,6.2,1.6,8,4.3
	c1.9-2.6,4.9-4.1,8-4.1c0.1,0,0.1,0,0.2,0c6.5,0.1,10.7,3.1,15.3,7.8c2.2,2.3,4.5,3.2,6.5,3.2c2.4,0,4.5-1.4,5.5-3.3
	C82.3,27.2,80.4,22.2,77.3,21.3z"/>
</svg>
